<mxfile host="app.diagrams.net" modified="2020-10-22T11:06:18.067Z" agent="5.0 (Windows NT 10.0; Win64; x64) AppleWebKit/537.36 (KHTML, like Gecko) Chrome/86.0.4240.111 Safari/537.36" etag="KobqHhimSsWg7Fl1qrJg" version="13.8.1" type="github">
  <diagram id="C5RBs43oDa-KdzZeNtuy" name="Page-1">
    <mxGraphModel dx="1203" dy="840" grid="1" gridSize="10" guides="1" tooltips="1" connect="1" arrows="1" fold="1" page="1" pageScale="1" pageWidth="1169" pageHeight="827" math="0" shadow="0">
      <root>
        <mxCell id="WIyWlLk6GJQsqaUBKTNV-0" />
        <mxCell id="WIyWlLk6GJQsqaUBKTNV-1" parent="WIyWlLk6GJQsqaUBKTNV-0" />
        <mxCell id="WIyWlLk6GJQsqaUBKTNV-2" value="" style="rounded=0;html=1;jettySize=auto;orthogonalLoop=1;fontSize=11;endArrow=classic;endFill=1;endSize=8;strokeWidth=1;shadow=0;labelBackgroundColor=none;edgeStyle=orthogonalEdgeStyle;entryX=0.5;entryY=0;entryDx=0;entryDy=0;" parent="WIyWlLk6GJQsqaUBKTNV-1" source="WIyWlLk6GJQsqaUBKTNV-3" target="CEkKTpPPNDytTsqzF80r-40" edge="1">
          <mxGeometry relative="1" as="geometry">
            <mxPoint x="-31" y="830" as="targetPoint" />
            <Array as="points">
              <mxPoint x="300" y="310" />
              <mxPoint x="510" y="310" />
            </Array>
          </mxGeometry>
        </mxCell>
        <mxCell id="JtxECdBvt4VdKFY3qlF7-15" style="edgeStyle=orthogonalEdgeStyle;rounded=0;orthogonalLoop=1;jettySize=auto;html=1;" parent="WIyWlLk6GJQsqaUBKTNV-1" source="WIyWlLk6GJQsqaUBKTNV-3" target="JtxECdBvt4VdKFY3qlF7-14" edge="1">
          <mxGeometry relative="1" as="geometry">
            <Array as="points">
              <mxPoint x="300" y="330" />
              <mxPoint x="300" y="330" />
            </Array>
          </mxGeometry>
        </mxCell>
        <mxCell id="DnFfwgFPN2qazkMYdUmA-1" style="edgeStyle=orthogonalEdgeStyle;rounded=0;orthogonalLoop=1;jettySize=auto;html=1;" edge="1" parent="WIyWlLk6GJQsqaUBKTNV-1" source="WIyWlLk6GJQsqaUBKTNV-3" target="DnFfwgFPN2qazkMYdUmA-0">
          <mxGeometry relative="1" as="geometry">
            <Array as="points">
              <mxPoint x="300" y="310" />
              <mxPoint x="90" y="310" />
            </Array>
          </mxGeometry>
        </mxCell>
        <mxCell id="WIyWlLk6GJQsqaUBKTNV-3" value="Weather Generator" style="shape=process;whiteSpace=wrap;html=1;backgroundOutline=1;shadow=0;fontFamily=Helvetica;fontSize=12;fontColor=#000000;align=center;strokeColor=#000000;strokeWidth=1;fillColor=#ffffff;rounded=1;" parent="WIyWlLk6GJQsqaUBKTNV-1" vertex="1">
          <mxGeometry x="240" y="230" width="120" height="50" as="geometry" />
        </mxCell>
        <mxCell id="CEkKTpPPNDytTsqzF80r-11" style="edgeStyle=orthogonalEdgeStyle;rounded=0;orthogonalLoop=1;jettySize=auto;html=1;" parent="WIyWlLk6GJQsqaUBKTNV-1" source="CEkKTpPPNDytTsqzF80r-10" target="WIyWlLk6GJQsqaUBKTNV-3" edge="1">
          <mxGeometry relative="1" as="geometry" />
        </mxCell>
        <mxCell id="CEkKTpPPNDytTsqzF80r-10" value="UKCP18" style="shape=parallelogram;perimeter=parallelogramPerimeter;whiteSpace=wrap;html=1;fixedSize=1;rounded=1;" parent="WIyWlLk6GJQsqaUBKTNV-1" vertex="1">
          <mxGeometry x="250" y="130" width="100" height="50" as="geometry" />
        </mxCell>
        <mxCell id="Q-MxYJhCNWQ3zZ72rHfX-25" style="edgeStyle=orthogonalEdgeStyle;rounded=0;orthogonalLoop=1;jettySize=auto;html=1;entryX=0.5;entryY=0;entryDx=0;entryDy=0;" parent="WIyWlLk6GJQsqaUBKTNV-1" source="CEkKTpPPNDytTsqzF80r-34" target="Q-MxYJhCNWQ3zZ72rHfX-24" edge="1">
          <mxGeometry relative="1" as="geometry" />
        </mxCell>
        <mxCell id="CEkKTpPPNDytTsqzF80r-34" value="SHETran" style="shape=process;whiteSpace=wrap;html=1;backgroundOutline=1;shadow=0;fontFamily=Helvetica;fontSize=12;fontColor=#000000;align=center;strokeColor=#000000;strokeWidth=1;fillColor=#ffffff;rounded=1;" parent="WIyWlLk6GJQsqaUBKTNV-1" vertex="1">
          <mxGeometry x="535" y="510" width="120" height="58" as="geometry" />
        </mxCell>
        <mxCell id="hF3Igr1HY41fA1B3tBO1-2" style="edgeStyle=orthogonalEdgeStyle;rounded=0;orthogonalLoop=1;jettySize=auto;html=1;entryX=0.5;entryY=0;entryDx=0;entryDy=0;" parent="WIyWlLk6GJQsqaUBKTNV-1" source="CEkKTpPPNDytTsqzF80r-40" target="CEkKTpPPNDytTsqzF80r-34" edge="1">
          <mxGeometry relative="1" as="geometry">
            <Array as="points">
              <mxPoint x="510" y="440" />
              <mxPoint x="595" y="440" />
            </Array>
          </mxGeometry>
        </mxCell>
        <mxCell id="CEkKTpPPNDytTsqzF80r-40" value="Rainfall" style="shape=parallelogram;perimeter=parallelogramPerimeter;whiteSpace=wrap;html=1;fixedSize=1;rounded=1;" parent="WIyWlLk6GJQsqaUBKTNV-1" vertex="1">
          <mxGeometry x="460" y="350" width="100" height="45" as="geometry" />
        </mxCell>
        <mxCell id="CEkKTpPPNDytTsqzF80r-42" value="Dataset" style="shape=parallelogram;perimeter=parallelogramPerimeter;whiteSpace=wrap;html=1;fixedSize=1;rounded=1;" parent="WIyWlLk6GJQsqaUBKTNV-1" vertex="1">
          <mxGeometry x="120" y="610" width="90" height="40" as="geometry" />
        </mxCell>
        <mxCell id="CEkKTpPPNDytTsqzF80r-43" value="OpenCLIM Model" style="rounded=1;whiteSpace=wrap;html=1;fontSize=12;glass=0;strokeWidth=1;shadow=0;" parent="WIyWlLk6GJQsqaUBKTNV-1" vertex="1">
          <mxGeometry x="220" y="610" width="85" height="40" as="geometry" />
        </mxCell>
        <mxCell id="Q-MxYJhCNWQ3zZ72rHfX-24" value="River Level and Discharge" style="shape=parallelogram;perimeter=parallelogramPerimeter;whiteSpace=wrap;html=1;fixedSize=1;rounded=1;" parent="WIyWlLk6GJQsqaUBKTNV-1" vertex="1">
          <mxGeometry x="525" y="640" width="140" height="45" as="geometry" />
        </mxCell>
        <mxCell id="JtxECdBvt4VdKFY3qlF7-3" style="edgeStyle=orthogonalEdgeStyle;rounded=0;orthogonalLoop=1;jettySize=auto;html=1;entryX=0.5;entryY=0;entryDx=0;entryDy=0;" parent="WIyWlLk6GJQsqaUBKTNV-1" source="3T1dtDgbaSjGBwINf-Fj-5" target="JtxECdBvt4VdKFY3qlF7-0" edge="1">
          <mxGeometry relative="1" as="geometry" />
        </mxCell>
        <mxCell id="3T1dtDgbaSjGBwINf-Fj-5" value="Land Use Model" style="rounded=1;whiteSpace=wrap;html=1;shadow=0;fontFamily=Helvetica;fontSize=12;fontColor=#000000;align=center;strokeColor=#000000;strokeWidth=1;fillColor=#ffffff;" parent="WIyWlLk6GJQsqaUBKTNV-1" vertex="1">
          <mxGeometry x="830" y="130" width="120" height="50" as="geometry" />
        </mxCell>
        <mxCell id="hF3Igr1HY41fA1B3tBO1-22" value="Existing&lt;br&gt;Model" style="shape=process;whiteSpace=wrap;html=1;backgroundOutline=1;shadow=0;fontFamily=Helvetica;fontSize=12;fontColor=#000000;align=center;strokeColor=#000000;strokeWidth=1;fillColor=#ffffff;rounded=1;" parent="WIyWlLk6GJQsqaUBKTNV-1" vertex="1">
          <mxGeometry x="320" y="612" width="90" height="39" as="geometry" />
        </mxCell>
        <mxCell id="JtxECdBvt4VdKFY3qlF7-4" style="edgeStyle=orthogonalEdgeStyle;rounded=0;orthogonalLoop=1;jettySize=auto;html=1;" parent="WIyWlLk6GJQsqaUBKTNV-1" source="JtxECdBvt4VdKFY3qlF7-0" target="JtxECdBvt4VdKFY3qlF7-1" edge="1">
          <mxGeometry relative="1" as="geometry">
            <Array as="points">
              <mxPoint x="890" y="310" />
              <mxPoint x="705" y="310" />
            </Array>
          </mxGeometry>
        </mxCell>
        <mxCell id="JtxECdBvt4VdKFY3qlF7-5" style="edgeStyle=orthogonalEdgeStyle;rounded=0;orthogonalLoop=1;jettySize=auto;html=1;" parent="WIyWlLk6GJQsqaUBKTNV-1" source="JtxECdBvt4VdKFY3qlF7-0" target="JtxECdBvt4VdKFY3qlF7-2" edge="1">
          <mxGeometry relative="1" as="geometry">
            <Array as="points">
              <mxPoint x="890" y="290" />
              <mxPoint x="890" y="290" />
            </Array>
          </mxGeometry>
        </mxCell>
        <mxCell id="JtxECdBvt4VdKFY3qlF7-12" style="edgeStyle=orthogonalEdgeStyle;rounded=0;orthogonalLoop=1;jettySize=auto;html=1;" parent="WIyWlLk6GJQsqaUBKTNV-1" source="JtxECdBvt4VdKFY3qlF7-0" target="JtxECdBvt4VdKFY3qlF7-8" edge="1">
          <mxGeometry relative="1" as="geometry">
            <Array as="points">
              <mxPoint x="890" y="310" />
              <mxPoint x="1070" y="310" />
            </Array>
          </mxGeometry>
        </mxCell>
        <mxCell id="JtxECdBvt4VdKFY3qlF7-0" value="Land Use" style="shape=parallelogram;perimeter=parallelogramPerimeter;whiteSpace=wrap;html=1;fixedSize=1;rounded=1;" parent="WIyWlLk6GJQsqaUBKTNV-1" vertex="1">
          <mxGeometry x="840" y="235" width="100" height="45" as="geometry" />
        </mxCell>
        <mxCell id="JtxECdBvt4VdKFY3qlF7-6" style="edgeStyle=orthogonalEdgeStyle;rounded=0;orthogonalLoop=1;jettySize=auto;html=1;" parent="WIyWlLk6GJQsqaUBKTNV-1" source="JtxECdBvt4VdKFY3qlF7-1" target="CEkKTpPPNDytTsqzF80r-34" edge="1">
          <mxGeometry relative="1" as="geometry">
            <Array as="points">
              <mxPoint x="705" y="440" />
              <mxPoint x="595" y="440" />
            </Array>
          </mxGeometry>
        </mxCell>
        <mxCell id="JtxECdBvt4VdKFY3qlF7-1" value="Vegetation Type" style="shape=parallelogram;perimeter=parallelogramPerimeter;whiteSpace=wrap;html=1;fixedSize=1;rounded=1;" parent="WIyWlLk6GJQsqaUBKTNV-1" vertex="1">
          <mxGeometry x="640" y="350" width="130" height="45" as="geometry" />
        </mxCell>
        <mxCell id="JtxECdBvt4VdKFY3qlF7-7" style="edgeStyle=orthogonalEdgeStyle;rounded=0;orthogonalLoop=1;jettySize=auto;html=1;" parent="WIyWlLk6GJQsqaUBKTNV-1" source="JtxECdBvt4VdKFY3qlF7-2" target="CEkKTpPPNDytTsqzF80r-34" edge="1">
          <mxGeometry relative="1" as="geometry">
            <Array as="points">
              <mxPoint x="890" y="440" />
              <mxPoint x="595" y="440" />
            </Array>
          </mxGeometry>
        </mxCell>
        <mxCell id="JtxECdBvt4VdKFY3qlF7-2" value="Soil Type" style="shape=parallelogram;perimeter=parallelogramPerimeter;whiteSpace=wrap;html=1;fixedSize=1;rounded=1;" parent="WIyWlLk6GJQsqaUBKTNV-1" vertex="1">
          <mxGeometry x="840" y="350" width="100" height="45" as="geometry" />
        </mxCell>
        <mxCell id="JtxECdBvt4VdKFY3qlF7-13" style="edgeStyle=orthogonalEdgeStyle;rounded=0;orthogonalLoop=1;jettySize=auto;html=1;" parent="WIyWlLk6GJQsqaUBKTNV-1" source="JtxECdBvt4VdKFY3qlF7-8" target="CEkKTpPPNDytTsqzF80r-34" edge="1">
          <mxGeometry relative="1" as="geometry">
            <Array as="points">
              <mxPoint x="1070" y="440" />
              <mxPoint x="595" y="440" />
            </Array>
          </mxGeometry>
        </mxCell>
        <mxCell id="JtxECdBvt4VdKFY3qlF7-8" value="Lakes" style="shape=parallelogram;perimeter=parallelogramPerimeter;whiteSpace=wrap;html=1;fixedSize=1;rounded=1;" parent="WIyWlLk6GJQsqaUBKTNV-1" vertex="1">
          <mxGeometry x="1020" y="350" width="100" height="45" as="geometry" />
        </mxCell>
        <mxCell id="JtxECdBvt4VdKFY3qlF7-16" style="edgeStyle=orthogonalEdgeStyle;rounded=0;orthogonalLoop=1;jettySize=auto;html=1;" parent="WIyWlLk6GJQsqaUBKTNV-1" source="JtxECdBvt4VdKFY3qlF7-14" target="CEkKTpPPNDytTsqzF80r-34" edge="1">
          <mxGeometry relative="1" as="geometry">
            <Array as="points">
              <mxPoint x="300" y="373" />
              <mxPoint x="300" y="440" />
              <mxPoint x="595" y="440" />
            </Array>
          </mxGeometry>
        </mxCell>
        <mxCell id="JtxECdBvt4VdKFY3qlF7-14" value="Potential Evapotranspiration" style="shape=parallelogram;perimeter=parallelogramPerimeter;whiteSpace=wrap;html=1;fixedSize=1;rounded=1;" parent="WIyWlLk6GJQsqaUBKTNV-1" vertex="1">
          <mxGeometry x="240" y="350" width="140" height="45" as="geometry" />
        </mxCell>
        <mxCell id="DnFfwgFPN2qazkMYdUmA-2" style="edgeStyle=orthogonalEdgeStyle;rounded=0;orthogonalLoop=1;jettySize=auto;html=1;" edge="1" parent="WIyWlLk6GJQsqaUBKTNV-1" source="DnFfwgFPN2qazkMYdUmA-0" target="CEkKTpPPNDytTsqzF80r-34">
          <mxGeometry relative="1" as="geometry">
            <Array as="points">
              <mxPoint x="90" y="440" />
              <mxPoint x="595" y="440" />
            </Array>
          </mxGeometry>
        </mxCell>
        <mxCell id="DnFfwgFPN2qazkMYdUmA-0" value="Temperature" style="shape=parallelogram;perimeter=parallelogramPerimeter;whiteSpace=wrap;html=1;fixedSize=1;rounded=1;" vertex="1" parent="WIyWlLk6GJQsqaUBKTNV-1">
          <mxGeometry x="20" y="350" width="140" height="45" as="geometry" />
        </mxCell>
      </root>
    </mxGraphModel>
  </diagram>
</mxfile>
